<svg width="300" height="300" xmlns="http://www.w3.org/2000/svg">

 <g>
  <title>Layer 1</title>
  <path id="p" d="m137,189c0,1 0,2 0,2c0,4 0.5695,6.133 2,10c0.7758,2.09717 2.69124,7.07179 4,12c0.81166,3.05634 2,6 2,8c0,0 0,2 0,2c1,1 1.29289,1.29289 2,2c1.41422,1.41422 -0.38269,2.07613 0,3c0.5412,1.30656 1,2 2,3c0,0 0,1 0,2c0,0 0,1 0,2c0,0 0,1 0,2c0,1 1.49345,2.87856 2,6c0.32036,1.97418 -0.21014,5.07843 1,8c0.85571,2.06586 1,4 1,4c0,2 -0.70711,2.29291 0,3c0.70711,0.70709 2,0 2,-1c0,-2 1.51945,-7.03874 2,-10c1.01308,-6.24289 3,-8 3,-10c0,0 1,-2 1,-3c0,-3 0.77025,-6.02675 1,-7c0.51375,-2.17625 1.7334,-5.71098 3,-10c2.56468,-8.6846 2,-14 2,-16c0,-1 0,-2 0,-2c1,-2 5.96919,-14.47282 8,-26c0.347,-1.96967 0.4588,-2.69344 1,-4c0.76537,-1.84776 0,-2 0,-4c0,-2 0.38269,-4.07613 0,-5c-0.5412,-1.30656 -0.23463,-3.15224 -1,-5c-1.0824,-2.61313 -2.69255,-4.186 -4,-6c-1.65381,-2.29454 -3,-2 -6,-4c-3,-2 -4.22935,-2.33199 -8,-4c-3.29733,-1.45863 -7,-2 -8,-2c-2,0 -5,-1 -7,-1c-1,0 -2,0 -4,0c-3,0 -3.82375,0.48625 -6,1c-2.91975,0.68925 -5.04132,-0.15277 -9,1c-3.03616,0.88414 -7.18204,1.56503 -10,3c-7.66566,3.90355 -13.71412,11.21167 -16,14c-1.79319,2.18735 -3.4588,1.69344 -4,3c-0.38268,0.92387 0.4595,3.0535 0,5c-0.51374,2.17625 -1,2 -1,4c0,1 -0.76537,2.15224 0,4c0.5412,1.30656 0.69255,2.186 2,4c1.65381,2.29454 3.066,2.87766 5,4c3.11848,1.80972 4.87856,3.49345 8,4c3.94835,0.64073 20.02281,3.85698 33,6c17.032,2.81262 22.90283,4.2242 25,5c3.867,1.4305 6.31001,0.33749 9,2c1.203,0.7435 5,1 5,1c2,0 1.82375,0.48625 4,1c1.9465,0.4595 2,0 5,0c5,0 11.03609,-0.37822 13,0c5.28799,1.01837 8.82443,3.09789 10,5c1.05147,1.70131 4,10 4,12c0,4 0,6 0,8c0,4 0.76537,6.15224 0,8c-1.0824,2.61313 -1.43463,6.15099 -4,8c-0.81125,0.58472 -2.06601,1.87766 -4,3c-3.11848,1.80972 -6.06601,3.87766 -8,5c-3.11848,1.80972 -3.54915,2.95517 -7,4c-0.95709,0.28978 -1.87856,1.49345 -5,2c-0.98709,0.16019 -3.87856,1.49347 -7,2c-2.96126,0.48056 -4.87856,0.49347 -8,1c-0.98709,0.16019 -3,0 -5,0c-4,0 -6.0146,0.29562 -9,0c-5.0742,-0.50244 -6.22836,0.14804 -9,-1c-2.61313,-1.0824 -3.04291,-1.71022 -4,-2c-3.45085,-1.04483 -3.82375,-2.48625 -6,-3c-0.97325,-0.22975 -2,-1 -2,-1c0,0 -2,0 -3,-1c-1,-1 -1,-1 -2,-1c-1,0 -1.07613,-0.61731 -2,-1c-1.30656,-0.5412 -0.69255,-1.186 -2,-3c-0.8269,-1.14726 -1,-2 -2,-4c-1,-2 -1,-3 -1,-4c0,-1 0,-2 0,-4c0,-1 0,-2 0,-3c0,-1 1.48626,-0.82375 2,-3c0.22975,-0.97325 0.186,-2.69255 2,-4c2.29454,-1.65381 2,-2 3,-3c1,-1 3.08582,-0.42043 5,-1c3.45085,-1.04483 6.03874,-1.51945 9,-2c3.12144,-0.50655 4,-1 7,-1c1,0 2.15224,-0.76537 4,0c1.30656,0.5412 2,1 3,1c1,0 2.02675,1.77025 3,2c2.17625,0.51375 3.54915,2.95517 7,4c0.95709,0.28978 5.41885,2.41885 7,4c1.58115,1.58115 3.186,2.69255 5,4c1.14726,0.8269 1.82443,1.09789 3,3c0.52573,0.85065 1.29289,0.29289 2,1c0.70711,0.70711 1.29289,1.29289 2,2c0.70711,0.70711 1.54915,2.95517 5,4c0.95709,0.28978 5.15224,0.23463 7,1c1.30656,0.5412 4,1 6,1c1,0 2.08582,0.57957 4,0c3.45085,-1.04483 6,-5 7,-6c2,-2 3.29869,-2.94853 5,-4c1.90211,-1.17557 1.61731,-4.07613 2,-5c0.5412,-1.30656 2,-3 3,-5c1,-2 2,-3 3,-4c0,0 0,-1 0,-2c0,0 -0.70711,-1.29289 0,-2c0.70711,-0.70711 1,-1 1,-2c0,-2 0.48625,-2.82375 1,-5c0.22975,-0.97325 0,-3 0,-4c0,-1 0.77025,-1.02675 1,-2c0.51375,-2.17625 2.86325,-3.1468 5,-5c3.77727,-3.27602 5.87856,-5.49345 9,-6c0.98709,-0.16019 3,-1 4,-1c1,0 1,0 0,0c-1,0 -0.69344,-0.4588 -2,-1c-1.84776,-0.76537 -5,0 -5,0c-3,0 -4,0 -7,1c-3,1 -6.75711,3.98692 -13,5c-1.97418,0.32036 -5.69255,4.186 -7,6c-1.65381,2.29454 -3.28859,1.86829 -5,6c-1.21014,2.92157 -1.31075,4.08025 -2,7c-0.51375,2.17625 -1,3 -1,5c0,2 -0.22975,4.02675 0,5c0.51375,2.17625 3.69255,7.186 5,9c1.65381,2.29454 2,2 3,3c1,1 4,3 4,3c2,1 4,2 5,2c0,0 2,0 3,0c2,0 3,0 4,0c1,0 2.02675,0.22975 3,0c2.17625,-0.51375 3.10558,-1.55278 4,-2c4.47214,-2.23607 5.19409,-5.88855 8,-11c2.15204,-3.9203 4.16797,-6.92033 6,-11c2.20605,-4.91257 3.48627,-7.82375 4,-10c0.4595,-1.9465 1,-4 1,-6c0,0 0,-2 0,-2c0,-1 0,-2 0,-3c0,-1 0.38269,-2.07613 0,-3c-0.5412,-1.30656 -1,-2 -2,-3c-1,-1 0.05145,-1.29869 -1,-3c-1.17557,-1.90211 -4,-2 -4,-2c-1,-1 -2,-1 -3,-1c-1,0 -1,0 -2,0c-1,0 -1.9176,-0.61313 -3,2c-0.38269,0.92387 -3.49904,4.95332 -4,13c-0.24855,3.99226 0,10 0,16c0,2 1.49345,3.87856 2,7c0.16019,0.98709 1.33749,4.31001 3,7c0.7435,1.203 1,3 3,4c0,0 1.48625,1.82375 2,4c0.22975,0.97325 0.69255,2.186 2,4c0.8269,1.14726 2.95517,2.54915 4,6c0.28979,0.95709 1.69254,4.186 3,6c0.8269,1.14726 1,2 2,4c1,2 1.2565,3.797 2,5c1.66251,2.69 1.87781,7.00751 2,8c0.50378,4.09222 1.29291,6.29291 2,7c1.41422,1.41422 0,3 0,4c0,1 0,3 0,4c0,2 -1,2 -1,3c0,1 -1.29291,2.29291 -2,3c-1.41422,1.41422 -1,3 -2,4c-1,1 -4,4 -6,5c-6,3 -11,6 -13,7c-4,2 -7.00749,3.87781 -8,4c-4.09221,0.50378 -9,1 -13,1c-2,0 -3.90283,-0.22421 -6,-1c-3.867,-1.43048 -6,-4 -8,-4c-1,0 -4.32367,-2.52017 -6,-4c-2.703,-2.38617 -4.41589,-3.76108 -6,-7c-1.38936,-2.84073 -2.2565,-4.797 -3,-6c-1.66251,-2.69 -1,-5 -1,-8c0,-1 0,-5 0,-6c0,-3 0,-5 0,-7c0,-2 -0.1891,-3.01804 0,-4c1.01837,-5.28799 3,-6 5,-10c1,-2 2.69255,-3.186 4,-5c2.48071,-3.4418 3.16124,-4.79626 7,-8c1.71675,-1.43275 2.85274,-2.1731 4,-3c1.814,-1.30745 4,-2 4,-2c2,-1 4,-2 5,-2c1,0 3,-2 4,-2c1,0 3,-1 3,-1c2,-1 2.69255,-1.186 4,-3c1.65381,-2.29454 4,-2 6,-4c2,-2 3,-4 5,-6c2,-2 3,-4 5,-6c2,-2 3.56349,-3.7025 6,-9c2.64276,-5.74594 3.61731,-10.07613 4,-11c1.0824,-2.61313 1.77023,-3.02675 2,-4c0.51373,-2.17625 2,-3 2,-5c0,-3 1.1731,-3.85274 2,-5c1.30746,-1.814 1.69254,-6.186 3,-8c0.8269,-1.14726 2.14429,-1.93414 3,-4c1.21014,-2.92157 2.9725,-3.64749 4,-8c0.4595,-1.9465 0.5405,-2.0535 1,-4c0.51373,-2.17625 13.3851,-26.37201 16,-30c1.65381,-2.29454 3,-4 3,-4c0,-1 -1.29291,-0.29289 -2,-1c-0.70709,-0.70711 -0.0535,-0.5405 -2,-1c-2.17624,-0.51374 -4,-1 -4,-1c-1,0 -2,0 -3,0c-1,0 -1,0 -2,0c-1,0 -1,0 -2,0c-1,0 -1,0 -2,0c-1,0 -4,0 -7,0c0,0 -5.94095,0.39388 -18,2c-9.96191,1.32681 -14,2 -15,3c-1,1 -2.49623,1.90778 -3,6c-0.12218,0.99251 -1,4 -1,6c0,0 0,2 0,4c0,3 -0.4305,8.133 1,12c0.7758,2.09717 1.5405,4.0535 2,6c1.02748,4.35251 4.2565,6.797 5,8c1.66251,2.68999 1.33749,4.31001 3,7c0.7435,1.203 2.82443,0.09789 4,2c1.05147,1.70131 2,4 3,5c3,3 4.37134,5.74675 7,10c1.17557,1.90211 5.4888,8.22218 7,11c3.05997,5.62465 7.79626,9.16124 11,13c1.43277,1.71675 3,5 4,6c2,2 3.61731,3.07613 4,4c0.5412,1.30656 2,2 3,3c1,1 2.4588,0.69344 3,2c0.38269,0.92387 0,1 0,1c0,-2 -0.49347,-4.87856 -1,-8c-0.8009,-4.93544 0,-10 0,-11c0,-3 1,-5 1,-5c0,-1 0,-2 0,-2c0,-1 0,-2 0,-2c0,-1 0.38269,-2.07613 0,-3c-0.5412,-1.30656 -0.94855,-1.29869 -2,-3c-1.17557,-1.90211 -1.54916,-2.95517 -5,-4c-1.91418,-0.57957 -2.87857,-1.49345 -6,-2c-1.97418,-0.32036 -3,-1 -7,-1c-4,0 -7.76694,0.82037 -17,3c-6.88191,1.6246 -9.13376,0.85124 -14,2c-6.52875,1.54123 -8.41695,5.34523 -21,10c-11.601,4.29149 -20.26445,7.38759 -44,18c-23.27463,10.40633 -34.69913,16.4866 -46,18c-8.92036,1.1946 -12,0 -17,1c-5,1 -6.9258,1.49756 -12,2c-2.9854,0.29561 -8,1 -10,1c-4,0 -5,0 -7,1c0,0 0,1 -1,1c0,0 0,1 0,2c0,0 0.29289,1.29289 1,2c2.12132,2.12132 20.85467,6.78423 35,9c9.9288,1.5553 11.87856,1.49347 15,2c3.94835,0.64072 7.00459,0.08795 27,-1c17.00423,-0.9252 19.82375,-2.48627 22,-3c2.91975,-0.68925 4.13045,-0.48756 9,-2c7.27304,-2.25894 16.16824,-4.58481 24,-8c6.149,-2.6814 8,-3 12,-5c4,-2 6.52815,-2.98534 12,-5c5.70815,-2.10167 8,-1 12,-2c4,-1 5.08743,-1.79393 10,-4c4.07965,-1.83203 6.70267,-3.54137 10,-5c3.77063,-1.66801 5.64749,-2.97252 10,-4c1.9465,-0.4595 5.07843,-1.78986 8,-3c2.06586,-0.85571 4.08582,-2.42043 6,-3c3.45084,-1.04483 3.38687,-2.9176 6,-4c1.84775,-0.76537 3.29291,-1.29289 4,-2c1.41422,-1.41422 2.69345,-0.4588 4,-1c0.92389,-0.38269 2.15225,0.76537 4,0c1.30655,-0.5412 3.82376,-2.48625 6,-3c2.91974,-0.68925 4,0 4,0c3,-2 5,-2 7,-2c1,0 1,-1 1,-2c0,0 0,-1 0,-2l0,0l0,-1" id="svg_3" stroke="#000" fill="none"/>
 </g>
</svg>